<svg width="24" height="24" viewBox="0 0 24 24" fill="none" xmlns="http://www.w3.org/2000/svg">
    <path fill-rule="evenodd" clip-rule="evenodd" d="M3 6.75C3 4.67893 4.67893 3 6.75 3H7.5C9.57107 3 11.25 4.67893 11.25 6.75V7.5C11.25 9.57107 9.57107 11.25 7.5 11.25H6.75C4.67893 11.25 3 9.57107 3 7.5V6.75ZM6.75 5H7.5C8.4665 5 9.25 5.7835 9.25 6.75V7.5C9.25 8.4665 8.4665 9.25 7.5 9.25H6.75C5.7835 9.25 5 8.4665 5 7.5V6.75C5 5.7835 5.7835 5 6.75 5Z" fill="#1F1F1F"/>
    <path fill-rule="evenodd" clip-rule="evenodd" d="M3 16.5C3 14.4289 4.67893 12.75 6.75 12.75H7.5C9.57107 12.75 11.25 14.4289 11.25 16.5V17.25C11.25 19.3211 9.57107 21 7.5 21H6.75C4.67893 21 3 19.3211 3 17.25V16.5ZM6.75 14.75H7.5C8.4665 14.75 9.25 15.5335 9.25 16.5V17.25C9.25 18.2165 8.4665 19 7.5 19H6.75C5.7835 19 5 18.2165 5 17.25V16.5C5 15.5335 5.7835 14.75 6.75 14.75Z" fill="#1F1F1F"/>
    <path fill-rule="evenodd" clip-rule="evenodd" d="M16.5 12.75C14.4289 12.75 12.75 14.4289 12.75 16.5V17.25C12.75 19.3211 14.4289 21 16.5 21H17.25C19.3211 21 21 19.3211 21 17.25V16.5C21 14.4289 19.3211 12.75 17.25 12.75H16.5ZM17.25 14.75H16.5C15.5335 14.75 14.75 15.5335 14.75 16.5V17.25C14.75 18.2165 15.5335 19 16.5 19H17.25C18.2165 19 19 18.2165 19 17.25V16.5C19 15.5335 18.2165 14.75 17.25 14.75Z" fill="#1F1F1F"/>
    <path fill-rule="evenodd" clip-rule="evenodd" d="M12.75 6.75C12.75 4.67893 14.4289 3 16.5 3H17.25C19.3211 3 21 4.67893 21 6.75V7.5C21 9.57107 19.3211 11.25 17.25 11.25H16.5C14.4289 11.25 12.75 9.57107 12.75 7.5V6.75ZM16.5 5H17.25C18.2165 5 19 5.7835 19 6.75V7.5C19 8.4665 18.2165 9.25 17.25 9.25H16.5C15.5335 9.25 14.75 8.4665 14.75 7.5V6.75C14.75 5.7835 15.5335 5 16.5 5Z" fill="#1F1F1F"/>
</svg>
