<?xml version="1.0" encoding="utf-8"?>
<!-- Generator: Adobe Illustrator 27.1.1, SVG Export Plug-In . SVG Version: 6.00 Build 0)  -->
<svg version="1.1" id="Layer_1" xmlns="http://www.w3.org/2000/svg" xmlns:xlink="http://www.w3.org/1999/xlink" x="0px" y="0px"
	 viewBox="0 0 24 24" style="enable-background:new 0 0 24 24;" xml:space="preserve">
<style type="text/css">
	.st0{fill:#1F1F1F;}
</style>
<g>
	<path class="st0" d="M7,3.5C5.1,3.5,3.5,5.1,3.5,7v0.8c0,1.9,1.6,3.5,3.5,3.5h0.8c1.9,0,3.5-1.6,3.5-3.5V7c0-1.9-1.6-3.5-3.5-3.5H7
		z"/>
	<path class="st0" d="M7,12.7c-1.9,0-3.5,1.6-3.5,3.5V17c0,1.9,1.6,3.5,3.5,3.5h0.8c1.9,0,3.5-1.6,3.5-3.5v-0.8
		c0-1.9-1.6-3.5-3.5-3.5H7z"/>
	<path class="st0" d="M12.7,16.2c0-1.9,1.6-3.5,3.5-3.5H17c1.9,0,3.5,1.6,3.5,3.5V17c0,1.9-1.6,3.5-3.5,3.5h-0.8
		c-1.9,0-3.5-1.6-3.5-3.5V16.2z"/>
	<path class="st0" d="M16.2,3.5c-1.9,0-3.5,1.6-3.5,3.5v0.8c0,1.9,1.6,3.5,3.5,3.5H17c1.9,0,3.5-1.6,3.5-3.5V7
		c0-1.9-1.6-3.5-3.5-3.5H16.2z"/>
</g>
</svg>
